<svg width="110" height="91" viewBox="0 0 110 91" fill="none" xmlns="http://www.w3.org/2000/svg">
<g clip-path="url(#clip0_30628_17715)">
<path d="M96.945 7.4912L36.2457 15.5318L4.25792 20.1375C1.81374 20.4901 0 22.5844 0 25.0536V73.047C0 75.7364 2.14074 77.9374 4.82948 78.0116L14.8563 78.2887L10.5312 90.495L30.5454 78.6067L46.1769 79.1533V79.1574L97.4535 80.4308C100.243 80.5001 102.543 78.2575 102.543 75.4662L102.551 12.417C102.551 9.42064 99.9177 7.10601 96.9463 7.4912H96.945Z" fill="#3D3E3E"/>
<path opacity="0.4" d="M102.543 72.9238L53.6271 71.7086V71.7045L12.279 70.5628C9.59027 70.4886 7.44953 68.2876 7.44953 65.5982V19.6797L5.52148 19.9575V67.5262C5.52148 70.2157 7.66222 72.4167 10.351 72.4908L51.6984 73.6325V73.6367L102.543 74.8997V72.9238Z" fill="url(#paint0_linear_30628_17715)"/>
<path opacity="0.9" d="M104.395 0.0426743L43.6959 8.08326L11.7081 12.689C9.26393 13.0409 7.4502 15.1352 7.4502 17.6043V65.5978C7.4502 68.2872 9.59093 70.4882 12.2797 70.5623L53.6271 71.7041V71.7082L104.904 72.9816C107.694 73.0509 109.993 70.8083 109.994 68.017L110.001 4.96776C110.001 1.97142 107.368 -0.343213 104.397 0.0419815L104.395 0.0426743Z" fill="#FCD42A"/>
<path d="M25.0458 50.4961C26.0434 50.4961 26.8997 50.6984 27.6153 51.103C28.331 51.5076 28.8721 52.0833 29.2399 52.8294C29.6078 53.5756 29.7914 54.452 29.7914 55.4579C29.7914 56.202 29.691 56.8781 29.4894 57.4864C29.2877 58.0947 28.9864 58.6219 28.5839 59.0681C28.1814 59.5142 27.6867 59.8558 27.1006 60.092C26.5145 60.3282 25.8425 60.4467 25.0853 60.4467C24.328 60.4467 23.6588 60.3255 23.0637 60.0823C22.4686 59.8391 21.9718 59.4969 21.5735 59.0549C21.1751 58.6129 20.8744 58.0815 20.6708 57.4601C20.4671 56.8386 20.3652 56.1673 20.3652 55.4447C20.3652 54.7221 20.4712 54.0273 20.6832 53.41C20.8952 52.7927 21.2028 52.2676 21.6053 51.8346C22.0079 51.4016 22.4984 51.0697 23.0755 50.8404C23.6532 50.6104 24.3093 50.4961 25.0444 50.4961H25.0458ZM27.8156 55.4454C27.8156 54.7409 27.7019 54.1305 27.474 53.6144C27.2468 53.0982 26.9219 52.7075 26.4992 52.4428C26.0766 52.1782 25.5924 52.0459 25.0451 52.0459C24.6557 52.0459 24.2955 52.1193 23.965 52.2655C23.6345 52.4124 23.3505 52.6257 23.1115 52.9056C22.8732 53.1855 22.6847 53.5437 22.5468 53.9788C22.409 54.4145 22.3404 54.903 22.3404 55.4454C22.3404 55.9879 22.4097 56.4867 22.5468 56.9287C22.6847 57.3707 22.8794 57.7372 23.1309 58.0282C23.3824 58.3191 23.6713 58.5367 23.9976 58.6815C24.3232 58.8263 24.6814 58.8983 25.0707 58.8983C25.5695 58.8983 26.0281 58.7736 26.4459 58.5242C26.8637 58.2748 27.1962 57.8896 27.4435 57.3693C27.6909 56.8483 27.8142 56.2075 27.8142 55.4461L27.8156 55.4454Z" fill="white"/>
<path d="M31.4717 56.3052V51.678C31.4717 51.2845 31.5604 50.9887 31.7377 50.7919C31.9151 50.5952 32.1478 50.4968 32.4367 50.4968C32.7256 50.4968 32.9785 50.5952 33.1552 50.7919C33.3325 50.9887 33.4212 51.2845 33.4212 51.678V56.4105C33.4212 56.9488 33.4815 57.3984 33.602 57.7594C33.7226 58.1203 33.936 58.4002 34.2422 58.5997C34.5484 58.7992 34.9772 58.8983 35.5287 58.8983C36.2901 58.8983 36.8284 58.696 37.1436 58.2914C37.4588 57.8868 37.6161 57.273 37.6161 56.45V51.678C37.6161 51.2796 37.7034 50.9831 37.8787 50.7885C38.0539 50.5938 38.2874 50.4961 38.5811 50.4961C38.8749 50.4961 39.1118 50.5938 39.2933 50.7885C39.4749 50.9831 39.5656 51.2796 39.5656 51.678V56.3052C39.5656 57.0576 39.4922 57.6859 39.346 58.1889C39.1991 58.6919 38.9227 59.1339 38.5153 59.5149C38.1655 59.8391 37.7581 60.0754 37.2946 60.2236C36.8305 60.3726 36.288 60.4467 35.6666 60.4467C34.9273 60.4467 34.2907 60.367 33.7565 60.207C33.2224 60.047 32.7873 59.8003 32.4506 59.465C32.1139 59.1304 31.8666 58.7016 31.7086 58.1785C31.5514 57.6554 31.4724 57.0312 31.4724 56.3045L31.4717 56.3052Z" fill="white"/>
<path d="M44.2914 56.1672H43.609V59.2584C43.609 59.6651 43.5189 59.9651 43.3402 60.1577C43.1608 60.3503 42.9266 60.4466 42.6377 60.4466C42.3266 60.4466 42.0862 60.3461 41.9158 60.1445C41.7454 59.9429 41.6602 59.6478 41.6602 59.2584V51.8545C41.6602 51.4347 41.7544 51.1306 41.9421 50.9421C42.1299 50.7537 42.4347 50.6602 42.8545 50.6602H46.0248C46.4619 50.6602 46.8367 50.6789 47.1471 50.7163C47.4575 50.7537 47.738 50.8292 47.9875 50.9428C48.2895 51.0696 48.5562 51.2511 48.7883 51.4874C49.0204 51.7236 49.1964 51.9986 49.3169 52.3111C49.4375 52.6242 49.4977 52.9554 49.4977 53.3052C49.4977 54.023 49.2955 54.5959 48.8909 55.0248C48.4863 55.4536 47.8725 55.7577 47.0494 55.9372C47.3951 56.1208 47.7256 56.3923 48.0408 56.7512C48.356 57.1101 48.6373 57.4918 48.8846 57.8964C49.132 58.301 49.3246 58.6668 49.4624 58.9924C49.6003 59.3187 49.6689 59.5425 49.6689 59.6651C49.6689 59.7877 49.628 59.918 49.5476 60.0427C49.4666 60.1674 49.3564 60.2658 49.2165 60.3378C49.0765 60.4099 48.9144 60.4459 48.7308 60.4459C48.5119 60.4459 48.3283 60.3946 48.1794 60.2914C48.0304 60.1889 47.9022 60.0586 47.7956 59.9007C47.6882 59.7434 47.5427 59.5113 47.3591 59.2051L46.5783 57.9054C46.2984 57.4288 46.0476 57.065 45.8266 56.8156C45.6056 56.5662 45.3812 56.3958 45.1539 56.3037C44.9267 56.2115 44.6399 56.1658 44.2942 56.1658L44.2914 56.1672ZM45.4068 52.124H43.6083V54.7691H45.3541C45.8225 54.7691 46.216 54.7289 46.5354 54.6479C46.8547 54.5668 47.0986 54.429 47.2669 54.2343C47.4353 54.0396 47.5198 53.7715 47.5198 53.43C47.5198 53.1632 47.4519 52.9277 47.3161 52.724C47.1803 52.5203 46.9926 52.3686 46.7515 52.2681C46.5243 52.1718 46.0753 52.124 45.4061 52.124H45.4068Z" fill="white"/>
<path d="M60.9501 52.2681H58.8232V59.2584C58.8232 59.661 58.7331 59.9595 58.5537 60.1542C58.3743 60.3489 58.1422 60.4466 57.8581 60.4466C57.5741 60.4466 57.3344 60.3482 57.1529 60.1515C56.9713 59.9547 56.8806 59.6568 56.8806 59.2584V52.2681H54.7537C54.4212 52.2681 54.1738 52.1947 54.0117 52.0485C53.8496 51.9016 53.7686 51.7084 53.7686 51.468C53.7686 51.2276 53.8531 51.0218 54.0214 50.877C54.1898 50.7329 54.4336 50.6602 54.753 50.6602H60.9494C61.2861 50.6602 61.5369 50.7343 61.7011 50.8832C61.8653 51.0322 61.947 51.2269 61.947 51.4673C61.947 51.7077 61.8639 51.9016 61.6976 52.0478C61.5313 52.1947 61.2819 52.2674 60.9494 52.2674L60.9501 52.2681Z" fill="white"/>
<path d="M69.4427 52.1621H65.0518V54.5253H69.0949C69.3921 54.5253 69.6145 54.5918 69.7614 54.7255C69.9083 54.8592 69.981 55.0352 69.981 55.2541C69.981 55.473 69.909 55.6511 69.7642 55.7889C69.6201 55.9268 69.3963 55.9954 69.0949 55.9954H65.0518V58.7326H69.5937C69.9 58.7326 70.1307 58.804 70.2865 58.946C70.4417 59.088 70.5193 59.2771 70.5193 59.5141C70.5193 59.751 70.4417 59.9263 70.2865 60.069C70.1314 60.211 69.9 60.2824 69.5937 60.2824H64.2966C63.872 60.2824 63.5671 60.1882 63.3808 60.0004C63.1944 59.8127 63.1016 59.5078 63.1016 59.088V51.8545C63.1016 51.5746 63.1431 51.346 63.2263 51.1687C63.3094 50.9913 63.4396 50.8625 63.617 50.7814C63.7944 50.7003 64.0209 50.6602 64.2966 50.6602H69.4427C69.7531 50.6602 69.9845 50.7287 70.1355 50.8666C70.2865 51.0045 70.3621 51.1853 70.3621 51.4084C70.3621 51.6315 70.2865 51.8185 70.1355 51.9564C69.9845 52.0942 69.7538 52.1628 69.4427 52.1628V52.1621Z" fill="white"/>
<path d="M78.2254 59.1921L77.7661 57.9845H73.8539L73.3945 59.2184C73.2151 59.6999 73.062 60.0248 72.9352 60.1932C72.8084 60.3615 72.6006 60.446 72.3117 60.446C72.0664 60.446 71.8503 60.3567 71.6619 60.1772C71.4734 59.9978 71.3799 59.7941 71.3799 59.5669C71.3799 59.4359 71.4014 59.3001 71.4457 59.1602C71.4893 59.0202 71.5614 58.8256 71.6625 58.5762L74.124 52.3278C74.194 52.1484 74.2785 51.933 74.3769 51.6815C74.4753 51.43 74.5806 51.2208 74.6921 51.0545C74.8037 50.8882 74.9506 50.7538 75.1321 50.6506C75.3136 50.5481 75.538 50.4961 75.8048 50.4961C76.0715 50.4961 76.3022 50.5474 76.4844 50.6506C76.6659 50.7538 76.8128 50.8861 76.9243 51.0476C77.0359 51.2097 77.1301 51.3836 77.2063 51.5692C77.2825 51.7556 77.3802 52.0036 77.4987 52.314L80.0128 58.5235C80.2096 58.996 80.3079 59.3396 80.3079 59.5537C80.3079 59.7678 80.2151 59.9812 80.0287 60.1675C79.8424 60.3532 79.6186 60.4467 79.356 60.4467C79.2029 60.4467 79.0713 60.4197 78.9625 60.365C78.8531 60.3102 78.7609 60.2361 78.6868 60.1419C78.612 60.0477 78.5323 59.9036 78.4471 59.7089C78.3619 59.5142 78.2884 59.3424 78.2275 59.1935L78.2254 59.1921ZM74.3658 56.52H77.2409L75.7902 52.5488L74.3658 56.52Z" fill="white"/>
<path d="M84.9861 58.8317L83.4439 52.7011V59.3437C83.4439 59.7115 83.3622 59.9866 83.198 60.1709C83.0338 60.3544 82.8162 60.4466 82.5447 60.4466C82.2731 60.4466 82.0673 60.3558 81.9017 60.1743C81.7355 59.9928 81.6523 59.7157 81.6523 59.3437V51.7298C81.6523 51.31 81.7618 51.0266 81.9807 50.8798C82.1997 50.7336 82.4948 50.6602 82.8668 50.6602H83.4709C83.834 50.6602 84.0979 50.6927 84.2621 50.7585C84.4263 50.8243 84.5475 50.9421 84.6265 51.1132C84.7055 51.2837 84.7949 51.5622 84.8953 51.9467L86.2934 57.2175L87.6914 51.9467C87.7919 51.5615 87.882 51.2837 87.9603 51.1132C88.0385 50.9428 88.1605 50.8243 88.3247 50.7585C88.4889 50.6927 88.7521 50.6602 89.1158 50.6602H89.72C90.092 50.6602 90.3871 50.7336 90.606 50.8798C90.825 51.0266 90.9344 51.31 90.9344 51.7298V59.3437C90.9344 59.7115 90.8527 59.9866 90.6885 60.1709C90.5243 60.3544 90.3047 60.4466 90.0289 60.4466C89.7705 60.4466 89.5585 60.3544 89.3923 60.1709C89.226 59.9873 89.1428 59.7115 89.1428 59.3437V52.7011L87.6007 58.8317C87.5002 59.23 87.4178 59.5217 87.3547 59.7081C87.291 59.8937 87.1739 60.0635 87.0035 60.2166C86.8331 60.3697 86.5968 60.4466 86.2948 60.4466C86.0675 60.4466 85.8749 60.3974 85.717 60.299C85.5597 60.2006 85.4371 60.0746 85.3491 59.9214C85.2618 59.7683 85.1925 59.5986 85.1426 59.4129C85.0921 59.2273 85.0408 59.0333 84.9882 58.8324L84.9861 58.8317Z" fill="white"/>
<path d="M34.4245 27.1385V38.5094C34.4245 39.4966 34.3823 40.3356 34.2985 41.0263C34.2146 41.717 34.0248 42.4181 33.7283 43.129C33.2343 44.3233 32.4203 45.2538 31.2855 45.9195C30.15 46.586 28.7686 46.9192 27.1398 46.9192C25.669 46.9192 24.4427 46.6871 23.4604 46.2237C22.478 45.7595 21.6861 45.0099 21.0841 43.9735C20.7682 43.4206 20.5118 42.7839 20.3144 42.0634C20.1169 41.3429 20.0186 40.6571 20.0186 40.0051C20.0186 39.3144 20.2112 38.7858 20.5957 38.4207C20.9808 38.0556 21.4741 37.8727 22.0762 37.8727C22.6782 37.8727 23.098 38.0404 23.3939 38.3764C23.6897 38.7124 23.9169 39.2354 24.0749 39.9456C24.2425 40.7055 24.4102 41.3124 24.5785 41.7662C24.7462 42.22 25.0275 42.61 25.4224 42.9357C25.8173 43.2613 26.3798 43.4241 27.11 43.4241C29.0547 43.4241 30.0267 41.9976 30.0267 39.1454V27.1378C30.0267 26.2497 30.2214 25.5832 30.6114 25.1391C31.0014 24.695 31.5314 24.4727 32.2028 24.4727C32.8741 24.4727 33.4242 24.695 33.8239 25.1391C34.2236 25.5832 34.4239 26.2497 34.4239 27.1378L34.4245 27.1385Z" fill="white"/>
<path d="M48.7414 24.4727C50.9916 24.4727 52.9238 24.9292 54.538 25.8423C56.1522 26.7554 57.3736 28.0537 58.2022 29.7365C59.0315 31.4193 59.4458 33.3959 59.4458 35.6662C59.4458 37.3441 59.2185 38.8696 58.7648 40.2414C58.311 41.6138 57.6293 42.8026 56.7217 43.8093C55.8134 44.8159 54.698 45.5863 53.3755 46.1191C52.053 46.6518 50.5378 46.9185 48.8301 46.9185C47.1223 46.9185 45.612 46.6449 44.2701 46.0969C42.9275 45.5489 41.8072 44.7764 40.9093 43.7795C40.0108 42.7825 39.3325 41.5833 38.8732 40.1818C38.4139 38.7803 38.1846 37.2651 38.1846 35.6364C38.1846 34.0076 38.4236 32.4384 38.9023 31.0466C39.381 29.6548 40.0745 28.4701 40.9828 27.4932C41.891 26.5157 42.996 25.7682 44.2992 25.25C45.6023 24.7318 47.0828 24.4727 48.7407 24.4727H48.7414ZM54.989 35.6364C54.989 34.0471 54.732 32.6705 54.2193 31.5052C53.706 30.3406 52.973 29.4601 52.0204 28.8622C51.0678 28.265 49.9746 27.9664 48.7407 27.9664C47.8622 27.9664 47.0503 28.132 46.3048 28.4625C45.5594 28.7936 44.9179 29.2744 44.3802 29.9063C43.8419 30.5381 43.4179 31.3452 43.1069 32.3269C42.7958 33.3093 42.6406 34.4122 42.6406 35.6357C42.6406 36.8591 42.7958 37.9849 43.1069 38.9819C43.4179 39.9788 43.8572 40.8053 44.4246 41.4621C44.992 42.1189 45.6432 42.6093 46.379 42.935C47.114 43.2606 47.9211 43.4234 48.7996 43.4234C49.9247 43.4234 50.959 43.1421 51.9012 42.5796C52.8434 42.017 53.5937 41.1482 54.1514 39.974C54.7091 38.7997 54.9876 37.3531 54.9876 35.6357L54.989 35.6364Z" fill="white"/>
<path d="M63.3845 44.2388V27.1378C63.3845 26.2497 63.5868 25.5832 63.9914 25.1391C64.396 24.695 64.919 24.4727 65.5606 24.4727C66.2021 24.4727 66.757 24.6923 67.1671 25.1315C67.5766 25.5707 67.7817 26.2393 67.7817 27.1378V44.2388C67.7817 45.1374 67.5766 45.808 67.1671 46.2521C66.7577 46.6962 66.2222 46.9185 65.5606 46.9185C64.8989 46.9185 64.4077 46.6941 63.9983 46.2451C63.5889 45.7962 63.3838 45.127 63.3838 44.2388H63.3845Z" fill="white"/>
<path d="M78.4271 27.1087L86.8813 39.9012V26.9903C86.8813 26.1513 87.0614 25.5222 87.4217 25.1024C87.7819 24.6833 88.2683 24.4733 88.88 24.4733C89.4917 24.4733 90.0099 24.6833 90.375 25.1024C90.7401 25.5222 90.923 26.1513 90.923 26.9903V44.0614C90.923 45.9666 90.1333 46.9185 88.5537 46.9185C88.1588 46.9185 87.8034 46.8617 87.4875 46.7481C87.1715 46.6345 86.875 46.4544 86.5993 46.2077C86.3229 45.9611 86.0665 45.6722 85.8289 45.3417C85.592 45.0113 85.355 44.6732 85.1181 44.3275L76.8711 31.6833V44.4016C76.8711 45.2309 76.6785 45.8579 76.294 46.2819C75.9088 46.7059 75.4155 46.9185 74.8135 46.9185C74.2114 46.9185 73.6932 46.7038 73.3184 46.2742C72.9429 45.8447 72.7559 45.2205 72.7559 44.4016V27.6561C72.7559 26.9452 72.8348 26.3875 72.9928 25.9829C73.1799 25.5389 73.4909 25.1758 73.9253 24.8946C74.3597 24.6133 74.8287 24.4727 75.3317 24.4727C75.7266 24.4727 76.0647 24.5371 76.3459 24.6653C76.6272 24.7934 76.8738 24.9666 77.0865 25.1835C77.2985 25.401 77.5161 25.6823 77.7378 26.0273C77.9601 26.373 78.1895 26.7332 78.4264 27.1081L78.4271 27.1087Z" fill="white"/>
</g>
<defs>
<linearGradient id="paint0_linear_30628_17715" x1="54.0324" y1="92.1163" x2="54.0324" y2="88.0579" gradientUnits="userSpaceOnUse">
<stop stop-color="#004597"/>
<stop offset="1" stop-color="#00346E"/>
</linearGradient>
<clipPath id="clip0_30628_17715">
<rect width="110" height="90.495" fill="white"/>
</clipPath>
</defs>
</svg>
