<svg width="55" height="53" viewBox="0 0 55 53" fill="none" xmlns="http://www.w3.org/2000/svg">
<mask id="mask0_30629_17783" style="mask-type:luminance" maskUnits="userSpaceOnUse" x="0" y="0" width="55" height="53">
<path fill-rule="evenodd" clip-rule="evenodd" d="M0 0H54.9556V52.2659H0V0Z" fill="white"/>
</mask>
<g mask="url(#mask0_30629_17783)">
<path fill-rule="evenodd" clip-rule="evenodd" d="M34.8052 29.7344C33.4922 29.7344 32.4238 30.8027 32.4238 32.1158C32.4238 33.4289 33.4922 34.4972 34.8052 34.4972C36.1183 34.4972 37.1867 33.4289 37.1867 32.1158C37.1867 30.8027 36.1183 29.7344 34.8052 29.7344Z" fill="#FCD42A"/>
<path fill-rule="evenodd" clip-rule="evenodd" d="M54.9556 26.133L46.1442 20.0679L49.7079 9.98194L39.0142 10.2543L35.969 0L27.4778 6.50601L18.9866 0L15.9413 10.2543L5.2477 9.98194L8.81139 20.0679L0 26.133L8.81139 32.1979L5.2477 42.2839L15.9413 42.0115L18.9866 52.2659L27.4778 45.7599L35.969 52.2659L39.0142 42.0115L49.7079 42.2839L46.1442 32.1979L54.9556 26.133ZM15.2044 21.1244C15.2044 18.3971 17.4231 16.1784 20.1504 16.1784C22.8776 16.1784 25.0964 18.3971 25.0964 21.1244C25.0964 23.8516 22.8776 26.0704 20.1504 26.0704C17.4231 26.0704 15.2044 23.8516 15.2044 21.1244ZM23.0817 36.439C22.8414 36.8396 22.4166 37.0617 21.9809 37.0617C21.7565 37.0617 21.529 37.0027 21.3224 36.8787C20.7151 36.5145 20.5184 35.7268 20.8827 35.1193L31.8739 16.8008C32.2379 16.1936 33.0257 15.9968 33.6332 16.3612C34.2404 16.7253 34.4372 17.513 34.0728 18.1205L23.0817 36.439ZM34.8052 37.0615C32.0779 37.0615 29.8592 34.8428 29.8592 32.1155C29.8592 29.3882 32.0779 27.1695 34.8052 27.1695C37.5325 27.1695 39.7512 29.3882 39.7512 32.1155C39.7512 34.8427 37.5325 37.0615 34.8052 37.0615Z" fill="#FCD42A"/>
<path fill-rule="evenodd" clip-rule="evenodd" d="M20.1509 18.7422C18.8379 18.7422 17.7695 19.8105 17.7695 21.1236C17.7695 22.4367 18.8379 23.505 20.1509 23.505C21.464 23.505 22.5324 22.4367 22.5324 21.1236C22.5324 19.8105 21.464 18.7422 20.1509 18.7422Z" fill="#FCD42A"/>
</g>
</svg>
