<svg width="103" height="105" viewBox="0 0 103 105" fill="none" xmlns="http://www.w3.org/2000/svg">
<mask id="mask0_30650_23370" style="mask-type:luminance" maskUnits="userSpaceOnUse" x="0" y="0" width="103" height="105">
<path fill-rule="evenodd" clip-rule="evenodd" d="M0 0H102.94V104.466H0V0Z" fill="white"/>
</mask>
<g mask="url(#mask0_30650_23370)">
<path fill-rule="evenodd" clip-rule="evenodd" d="M61.0725 0.46898L50.1545 9.73128C48.9041 10.7878 46.9444 9.93537 46.9444 8.32663V7.80439C46.9444 6.77191 46.0797 5.93752 45.0097 5.93752H35.6781C34.608 5.93752 33.7433 6.77191 33.7433 7.80439V22.8053C33.7433 23.3456 33.5069 23.8558 33.0839 24.21L22.421 33.2562C21.6184 33.9345 21.5376 35.1171 22.2468 35.8914L22.7756 36.4737C23.4785 37.2481 24.7041 37.3201 25.5066 36.6418L26.3091 35.9575C27.5596 34.895 29.5192 35.7474 29.5254 37.3561L29.5379 47.7229C29.5379 48.7554 30.4088 49.5898 31.4726 49.5898L32.2751 49.5838C33.3389 49.5838 34.2037 48.7494 34.2037 47.7169L34.1788 30.1528C34.1788 29.6185 34.4152 29.1083 34.832 28.7541L44.9226 20.1641L61.0725 6.45975C61.8066 5.84146 62.9015 5.84146 63.6293 6.45975L89.8573 28.7181C90.2742 29.0722 90.5168 29.5765 90.5168 30.1167L90.5417 56.8531C90.5417 57.8856 91.4126 58.72 92.4826 58.72H93.2789C94.3427 58.714 95.2075 57.8796 95.2075 56.8471L95.1888 37.3681C95.1888 35.7593 97.1484 34.901 98.3989 35.9635L99.2014 36.6418C100.004 37.3201 101.223 37.248 101.932 36.4737L102.455 35.8914C103.164 35.1171 103.083 33.9345 102.281 33.2562L63.6293 0.46297C62.9014 -0.15532 61.8065 -0.15532 61.0724 0.46897M40.3443 10.4395V10.4395C41.4143 10.4395 42.2791 11.2738 42.2791 12.3063V15.5658C42.2791 16.1061 42.0364 16.6163 41.6196 16.9705C40.3692 18.027 38.4095 17.1746 38.4095 15.5658V12.3063C38.4095 11.2738 39.2743 10.4395 40.3443 10.4395Z" fill="white"/>
<path fill-rule="evenodd" clip-rule="evenodd" d="M5.43784 81.1459L5.58092 81.362C6.24036 82.3464 7.60899 82.6286 8.62924 81.9863L8.84698 81.8542C9.86724 81.2119 10.1534 79.8973 9.49397 78.9129L9.35089 78.6968C8.69145 77.7123 7.32282 77.4362 6.30256 78.0725L6.08482 78.2165C5.07079 78.8468 4.7784 80.1614 5.43783 81.1459" fill="white"/>
<path fill-rule="evenodd" clip-rule="evenodd" d="M93.248 61.9306C90.5294 61.0482 87.4064 61.4264 83.96 63.1972C83.1699 63.5994 82.3611 63.9776 81.5151 64.2417C77.7887 65.4123 74.7901 66.2707 72.4634 66.907C71.0015 67.3031 69.3964 66.6368 68.849 65.2682C68.4322 64.2417 67.8038 63.2933 66.964 62.4889C65.3092 60.9042 63.2065 60.1658 60.8051 60.1178L50.8514 60.2439C50.7643 60.2499 50.6772 60.2499 50.5901 60.2499C49.6196 60.2499 48.7923 60.1298 48.8047 60.1958C42.3534 54.6012 28.9719 54.4092 21.5191 62.4049L15.7024 67.6453C14.6821 68.3056 13.2948 68.0355 12.6292 67.039L12.0942 66.2466C11.4285 65.2622 10.0661 64.9801 9.04582 65.6224L1.00198 70.6647C-0.0182767 71.301 -0.310666 72.6156 0.35499 73.6001L0.498071 73.8102C1.15751 74.7946 2.51992 75.0767 3.54017 74.4344L7.67718 71.8472C8.69744 71.2049 10.0599 71.4871 10.7193 72.4715L25.7618 94.8199C26.4275 95.8044 26.1351 97.119 25.1148 97.7613L20.984 100.354C19.9638 100.991 19.6714 102.305 20.337 103.29L20.4739 103.5C21.1396 104.484 22.502 104.767 23.5222 104.124L31.5661 99.0819C32.5863 98.4396 32.8787 97.125 32.2131 96.1405L31.6096 95.2461C30.9564 94.2736 31.2301 92.971 32.2317 92.3227L35.5413 90.1857L59.903 89.5014C66.9702 89.5014 69.4026 88.1028 74.255 85.3115C75.3002 84.6992 76.4822 84.0209 77.8757 83.2585C81.6768 81.1936 86.6474 78.1442 90.6476 75.695L94.43 73.3539C95.5933 72.6396 97.7271 71.295 98.8967 70.2685C99.6557 69.6022 99.8734 68.5217 99.4193 67.6273C97.976 64.7459 95.8422 62.777 93.248 61.9306M91.9162 69.5606L88.1401 71.8897C84.1897 74.3148 79.2688 77.3282 75.5859 79.3392C74.1489 80.1195 72.9358 80.8219 71.8595 81.4402C67.3679 84.0334 65.682 84.9998 59.8342 84.9998L34.7384 85.7021C34.2967 85.7141 33.8737 85.8462 33.5066 86.0863L27.889 89.712L16.38 72.6161L18.5947 71.1634L24.8407 65.5688C30.5827 59.4039 40.9408 59.4219 45.6626 63.5278C46.8757 64.6083 49.2148 64.8184 50.9381 64.7464L60.898 64.6204C62.0676 64.6864 62.9323 64.9685 63.6788 65.6889C64.5 66.4752 64.9044 67.5497 64.7862 68.6842C64.5871 70.5271 62.8888 71.8897 60.9727 71.9918L49.8245 72.556C49.3455 72.58 48.9847 72.9702 49.0095 73.4324L49.1651 76.2598C49.19 76.722 49.5943 77.0701 50.0671 77.0461L61.4268 76.4699C63.9463 76.3438 66.161 75.1432 67.6292 73.3544C68.0274 72.8622 68.5935 72.538 69.2218 72.388C71.592 71.8357 75.9841 70.7012 82.7153 68.6002C84.0466 68.186 85.2597 67.5977 86.703 66.8954C88.6253 65.959 90.3174 65.7309 91.7545 66.1931C92.7001 66.5052 93.54 67.1235 94.2678 68.0539C93.6022 68.5041 92.7996 69.0204 91.9162 69.5606" fill="white"/>
<path fill-rule="evenodd" clip-rule="evenodd" d="M56.4939 28.0312C54.3041 28.0312 52.5249 29.748 52.5249 31.861C52.5249 33.974 54.3041 35.6848 56.4939 35.6848C58.6775 35.6848 60.4568 33.974 60.4568 31.861C60.4568 29.7481 58.6775 28.0312 56.4939 28.0312" fill="white"/>
<path fill-rule="evenodd" clip-rule="evenodd" d="M64.4004 45.1813C64.4004 47.2943 66.1796 49.0051 68.3632 49.0051C70.553 49.0051 72.3323 47.2943 72.3323 45.1813C72.3323 43.0684 70.553 41.3516 68.3632 41.3516C66.1796 41.3516 64.4004 43.0684 64.4004 45.1813Z" fill="white"/>
<path fill-rule="evenodd" clip-rule="evenodd" d="M54.0485 46.1961L54.6208 46.7303C55.386 47.4446 56.6116 47.4266 57.3519 46.6883L70.6898 33.4221C71.4364 32.6838 71.4115 31.5012 70.6463 30.7809L70.074 30.2466C69.3088 29.5323 68.0832 29.5503 67.3429 30.2887L54.0049 43.5548C53.2646 44.2992 53.2833 45.4757 54.0485 46.196" fill="white"/>
</g>
</svg>
